# xmcd
#
# Track frame offsets: 
#        150
#        14882
#        32960
#        48280
#        66725
#        83927
#        101772
#        119295
#        136747
#        152760
#        168955
#
# Disc length: 2484 seconds
#
# Revision: 8
# Processed by: cddbd v1.5.2PL0 Copyright (c) Steve Scherf et al.
# Submitted via: ExactAudioCopy v0.99pb5
#
DISCID=9809b20b
DTITLE=George Harrison - Cloud Nine
DYEAR=1987
DGENRE=Rock
TTITLE0=Cloud 9
TTITLE1=That's What It Takes
TTITLE2=Fish On The Sand
TTITLE3=Just For Today
TTITLE4=This Is Love
TTITLE5=When We Was Fab
TTITLE6=Devil's Radio
TTITLE7=Someplace Else
TTITLE8=Wreck Of The Hesperus
TTITLE9=Breath Away From Heaven
TTITLE10=Got My Mind Set On You
EXTD=LABEL =Dark Horse Records\nID =925643-2\nUPC =none\nCOPYRIGHT 
EXTD==1987\n*****\nCatalog Number: W2-25643 YEAR: 1987
EXTT0=
EXTT1=
EXTT2=
EXTT3=
EXTT4=
EXTT5=
EXTT6=
EXTT7=
EXTT8=
EXTT9=
EXTT10=
PLAYORDER=
